<?xml version="1.0" standalone="no"?>
<!DOCTYPE svg PUBLIC "-//W3C//DTD SVG 20010904//EN"
 "http://www.w3.org/TR/2001/REC-SVG-20010904/DTD/svg10.dtd">
<svg version="1.0" xmlns="http://www.w3.org/2000/svg"
 width="952.000000pt" height="1280.000000pt" viewBox="0 0 952.000000 1280.000000"
 preserveAspectRatio="xMidYMid meet">

<g transform="translate(0.000000,1280.000000) scale(0.100000,-0.100000)"
fill="#000000" stroke="none">
<path d="M0 6400 l0 -6400 4760 0 4760 0 0 6400 0 6400 -2595 0 c-2513 0
-2595 -1 -2586 -18 15 -29 33 -40 149 -97 82 -41 124 -69 170 -114 67 -65 118
-160 128 -235 6 -39 4 -46 -11 -46 -15 0 -16 -8 -11 -77 18 -236 73 -1059 91
-1358 3 -49 8 -109 11 -132 l5 -42 67 -4 67 -3 -67 -2 c-57 -2 -68 -5 -68 -19
-1 -86 35 -479 44 -485 6 -4 40 -8 76 -9 36 -1 99 -5 140 -9 48 -5 20 -6 -77
-3 l-153 6 5 -44 c2 -24 9 -114 15 -199 6 -85 13 -192 16 -236 l6 -82 52 -6
c28 -3 99 -8 157 -12 l106 -7 7 62 c15 134 62 221 119 221 61 0 118 -93 136
-220 5 -36 7 -68 5 -71 -6 -11 155 -19 519 -26 213 -4 357 -3 357 3 0 5 22 7
49 6 84 -6 148 39 187 134 15 36 15 37 -15 68 -41 43 -53 79 -53 161 0 61 9
102 37 168 7 16 -12 17 -301 18 -170 1 -370 4 -444 8 -74 4 63 5 306 2 399 -4
443 -2 465 12 28 20 53 22 67 4 9 -10 41 -13 124 -11 l113 2 -105 -8 c-58 -4
-105 -8 -106 -9 0 0 1 -47 3 -103 4 -92 -2 -144 -28 -248 -3 -11 3 -14 19 -13
13 2 21 -1 17 -7 -3 -6 -16 -10 -28 -10 -16 0 -28 -11 -42 -37 -11 -21 -43
-61 -71 -88 l-50 -51 55 2 c176 7 453 27 547 40 l41 6 8 136 c6 129 12 151 39
152 5 0 6 -20 3 -45 -5 -51 -3 -51 21 -4 36 71 105 89 130 34 25 -56 2 -152
-49 -201 -24 -23 -39 -29 -75 -29 -35 0 -44 -3 -44 -17 0 -25 30 -23 250 11
293 47 601 117 840 191 73 22 90 31 73 36 -25 7 -37 35 -28 63 8 27 78 58 149
67 l59 7 -8 161 c-5 88 -7 183 -6 210 2 43 0 48 -16 41 -145 -57 -842 -218
-926 -214 -12 1 1 5 28 10 318 57 594 121 815 189 101 31 106 33 123 71 17 35
59 69 86 69 5 0 23 -11 39 -25 l30 -25 86 31 c76 27 86 34 86 56 0 49 49 113
87 113 14 0 23 -6 23 -15 0 -10 -10 -15 -28 -15 -15 0 -33 -5 -40 -12 -14 -14
-16 -78 -3 -78 20 0 375 152 484 207 27 13 51 23 53 20 6 -6 -227 -114 -395
-183 l-143 -59 6 -75 c4 -41 9 -96 13 -123 l6 -47 36 5 36 5 -32 -17 c-25 -12
-33 -23 -33 -42 1 -37 19 -173 24 -179 5 -4 96 28 96 35 0 2 -8 16 -17 30 -12
18 -18 45 -17 83 1 82 36 140 85 140 54 0 50 -72 -7 -138 -40 -47 -41 -53 -14
-77 19 -18 22 -18 55 -2 20 9 40 28 45 42 11 30 24 34 15 5 -8 -25 -9 -25 53
5 59 28 62 29 62 15 0 -6 -30 -25 -68 -43 -37 -18 -79 -40 -92 -50 -13 -9 -30
-17 -37 -17 -8 0 -46 -14 -86 -30 l-72 -31 3 -44 c7 -80 -37 -155 -89 -155
-29 0 -12 27 22 34 20 4 33 14 40 32 10 29 2 114 -11 114 -4 0 -70 -24 -147
-54 -465 -181 -962 -309 -1475 -381 -61 -8 -114 -18 -117 -21 -3 -2 -8 -26
-11 -51 -3 -27 -11 -48 -19 -51 -11 -4 -13 5 -8 47 l6 51 -37 0 c-20 0 -102
-8 -182 -16 -172 -18 -1025 -30 -1273 -17 -180 9 -170 13 -180 -74 -10 -90
-61 -165 -112 -165 -58 0 -105 66 -127 178 -6 33 -12 64 -13 70 -3 12 -302 40
-313 30 -5 -6 17 -428 38 -696 22 -293 23 -310 7 -310 -12 0 -17 17 -22 73 -6
73 -43 618 -70 1042 -20 309 -24 370 -31 437 l-6 57 -46 4 -47 3 49 2 49 2 -6
73 c-4 39 -12 154 -19 255 l-12 182 -64 0 -64 0 6 -157 c12 -302 16 -343 34
-343 15 -1 15 -2 -2 -15 -17 -13 -18 -25 -11 -182 3 -92 8 -195 10 -228 2 -34
9 -198 14 -365 6 -168 15 -413 21 -545 6 -132 17 -418 25 -635 8 -217 22 -568
30 -780 8 -212 22 -565 30 -785 8 -220 17 -449 20 -510 3 -60 12 -288 20 -505
37 -975 45 -1173 50 -1295 19 -437 34 -880 29 -884 -15 -15 -21 38 -27 217 -8
243 -34 926 -42 1082 -3 63 -10 239 -15 390 -5 151 -12 325 -15 385 -3 61 -12
290 -20 510 -16 431 -45 1184 -70 1810 -44 1138 -56 1438 -70 1840 -9 242 -18
450 -21 463 -4 19 -11 22 -57 24 l-52 1 55 6 54 6 -2 50 c-7 140 -32 836 -32
878 0 34 -4 47 -14 47 -8 0 -18 5 -22 12 -5 8 -2 9 9 5 15 -6 17 2 17 64 0 52
3 70 12 67 8 -3 14 -29 16 -71 l3 -66 52 -4 52 -3 -52 -2 -53 -2 7 -192 c3
-106 9 -211 12 -233 l6 -40 60 -3 60 -3 -11 178 c-16 248 -23 357 -34 513 -6
74 -12 171 -15 215 -3 44 -10 143 -15 220 -6 77 -15 219 -21 315 -7 96 -13
177 -16 179 -4 5 -334 -21 -566 -45 -82 -9 -151 -13 -155 -10 -12 12 9 18 90
27 46 5 103 11 128 14 48 5 397 33 467 37 l42 3 -23 58 c-46 111 -113 172
-280 254 -50 25 -98 52 -107 60 -14 12 -17 12 -22 0 -3 -8 -43 -37 -88 -63
-95 -56 -177 -132 -207 -190 -11 -22 -29 -71 -38 -107 -17 -62 -20 -67 -46
-67 -33 0 -34 10 -13 89 36 136 117 237 255 317 77 44 110 74 110 101 0 11
-409 13 -2135 13 l-2135 0 0 -6400z m4489 5595 c50 -34 82 -93 88 -164 7 -70
-8 -120 -50 -167 -40 -47 -82 -67 -137 -67 -95 0 -168 64 -191 167 -22 99 23
199 109 246 50 28 130 21 181 -15z m-2202 -235 c14 -28 17 -209 6 -383 -5 -95
-8 -107 -25 -107 -17 0 -18 13 -18 240 0 205 -2 240 -15 240 -44 0 -110 -224
-123 -420 -6 -79 -10 -95 -24 -98 -16 -3 -18 16 -20 255 -3 221 -5 258 -18
258 -22 0 -56 -77 -84 -190 -25 -100 -56 -290 -56 -339 0 -18 -5 -26 -17 -26
-17 0 -18 19 -19 253 0 264 -7 312 -42 305 -24 -5 -41 -61 -41 -140 -1 -69 -8
-81 -31 -53 -16 19 -6 104 19 161 22 48 51 60 84 34 32 -25 47 -81 54 -203 7
-109 7 -108 39 27 10 43 32 106 49 140 24 49 35 62 56 64 14 2 31 -3 37 -11 7
-8 12 -66 14 -148 l3 -134 17 70 c46 195 115 285 155 205z m7003 16 c0 -5
-107 -56 -250 -118 -442 -192 -905 -339 -1345 -427 -185 -37 -471 -82 -511
-80 l-29 2 30 4 c686 92 1254 249 1865 516 69 30 148 66 175 80 49 25 65 31
65 23z m-6362 -44 c3 -16 -2 -22 -17 -22 -26 0 -36 17 -20 36 16 19 33 13 37
-14z m187 -152 c15 -17 16 -24 7 -45 -6 -14 -19 -25 -29 -25 -13 0 -14 3 -5
12 19 19 15 58 -6 58 -41 0 -82 -69 -82 -139 0 -42 4 -53 24 -66 22 -15 27
-15 55 -1 16 9 35 24 40 33 6 10 10 14 10 8 1 -15 -31 -51 -56 -64 -33 -17
-64 -13 -90 11 -49 46 -18 165 56 215 42 28 53 29 76 3z m-230 -91 c-9 -44
-14 -92 -10 -106 6 -24 6 -24 32 -8 27 18 25 7 -5 -27 -20 -24 -29 -23 -47 5
-12 19 -13 37 -4 117 8 66 16 99 27 108 24 19 26 3 7 -89z m-100 63 c3 -8 1
-20 -4 -25 -7 -7 -12 -5 -17 6 -9 25 -61 22 -74 -3 -9 -17 -7 -24 16 -43 84
-70 90 -86 48 -136 -20 -25 -34 -31 -64 -31 -38 0 -67 21 -55 40 4 7 14 5 28
-5 42 -30 87 -13 87 32 0 15 -13 31 -40 49 -64 43 -63 101 2 129 36 14 64 10
73 -13z m-211 -19 c-2 -16 -8 -55 -12 -88 -12 -100 -1 -125 40 -88 30 27 20
-1 -11 -31 -26 -25 -30 -26 -45 -11 -9 9 -16 21 -16 26 0 6 -14 -3 -31 -20
-17 -17 -41 -31 -54 -31 -40 0 -49 23 -46 128 1 78 5 100 19 110 23 18 25 0
14 -103 -13 -116 11 -146 68 -85 24 26 28 39 33 116 3 57 10 89 18 95 23 15
29 10 23 -18z m1929 13 c113 -47 159 -205 93 -323 l-25 -43 27 -1 c19 -1 15
-4 -13 -8 l-40 -6 3 -170 c1 -93 5 -198 8 -232 l6 -63 56 -2 57 -2 -59 -3 -59
-4 7 -162 c12 -286 36 -900 51 -1317 8 -223 17 -457 20 -520 3 -63 12 -293 20
-510 8 -217 24 -629 35 -915 11 -286 27 -698 35 -915 8 -217 17 -444 20 -505
3 -60 12 -292 20 -515 8 -223 22 -578 30 -790 8 -212 19 -504 25 -650 5 -146
12 -318 16 -382 4 -79 2 -118 -5 -118 -16 0 -20 44 -31 385 -6 176 -15 421
-20 545 -6 124 -17 405 -25 625 -28 771 -44 1191 -50 1315 -3 69 -12 303 -20
520 -37 971 -45 1182 -50 1295 -3 66 -12 298 -20 515 -8 217 -19 508 -25 645
-17 429 -19 485 -25 680 -3 105 -8 207 -11 228 l-6 37 -54 0 -54 0 0 -77 c0
-43 5 -181 10 -308 5 -126 19 -462 30 -745 11 -283 27 -686 35 -895 8 -209 24
-609 35 -890 11 -280 27 -681 35 -890 8 -209 24 -609 35 -890 22 -552 41
-1043 65 -1640 17 -441 18 -495 6 -495 -10 0 -16 118 -36 640 -8 217 -17 449
-20 515 -6 117 -20 479 -50 1265 -8 212 -17 439 -20 505 -6 120 -22 545 -50
1280 -8 215 -17 437 -20 495 -3 58 -9 229 -15 380 -5 151 -12 320 -15 375 -2
55 -7 168 -10 250 -3 83 -10 245 -15 360 -5 116 -12 291 -15 390 -15 462 -34
885 -40 895 -3 5 -33 10 -66 10 l-61 0 6 -132 c4 -73 9 -188 12 -255 l6 -123
57 -2 56 -2 -58 -3 -59 -4 6 -137 c4 -75 9 -180 11 -232 3 -52 10 -219 15
-370 13 -363 38 -1024 45 -1175 5 -112 14 -328 50 -1290 8 -214 17 -446 20
-515 6 -130 31 -790 40 -1060 3 -85 8 -177 11 -203 3 -27 9 -189 14 -360 9
-296 27 -774 51 -1336 7 -170 7 -257 0 -264 -16 -16 -19 19 -31 398 -7 198
-13 380 -15 405 -2 25 -6 152 -10 283 -5 130 -9 236 -11 234 -2 -2 -10 -48
-18 -103 -46 -302 -145 -605 -297 -904 -113 -224 -166 -308 -540 -855 -223
-327 -276 -494 -284 -900 -6 -322 45 -602 140 -760 92 -151 251 -323 381 -409
114 -75 284 -121 594 -161 l115 -15 -100 5 c-128 5 -291 29 -414 61 -157 41
-271 114 -416 265 -110 115 -202 246 -238 337 -105 272 -133 701 -66 1042 28
145 61 239 121 345 50 88 87 144 302 454 410 592 599 1021 681 1546 33 214 32
304 -30 1860 -8 204 -22 550 -30 770 -8 220 -17 454 -20 520 -3 66 -12 293
-20 505 -45 1180 -56 1456 -65 1660 -5 124 -10 255 -10 293 0 57 -3 67 -17 67
-15 0 -16 2 -3 10 12 7 14 31 10 132 -2 68 -5 137 -6 153 -1 17 -2 74 -3 128
l-1 97 -47 1 c-27 0 -57 4 -68 9 -14 6 0 9 44 7 l64 -2 -1 70 c-1 39 -5 143
-8 233 l-7 162 -48 0 c-27 0 -49 4 -49 9 0 4 23 6 50 3 l50 -5 0 32 c0 17 5
31 10 31 6 0 10 -13 10 -30 0 -25 4 -30 25 -30 l24 0 -22 38 c-17 29 -22 53
-22 108 0 61 4 77 30 120 50 81 146 115 228 80z m-2949 -222 c21 -21 20 -38
-1 -29 -39 16 -54 17 -68 5 -29 -24 -17 -49 32 -73 59 -27 77 -58 59 -101 -15
-38 -69 -68 -100 -57 -11 5 -21 15 -21 22 0 14 14 15 52 4 25 -8 66 27 61 53
-2 9 -27 28 -56 42 -37 17 -54 31 -59 49 -8 31 14 71 47 88 32 16 35 16 54 -3z
m7850 -34 c-18 -18 -408 -187 -584 -253 -96 -36 -236 -84 -310 -108 -74 -23
-138 -45 -143 -49 -8 -7 70 -256 97 -308 11 -21 13 -32 5 -32 -8 0 -8 -4 1
-15 16 -20 5 -32 -14 -16 -18 15 -63 129 -101 256 -15 50 -29 93 -32 97 -4 8
-53 -12 -53 -22 0 -4 27 -84 60 -179 33 -94 57 -171 54 -171 -13 0 -64 32 -64
40 0 5 -9 34 -20 64 l-21 55 -60 -22 c-50 -18 -57 -23 -45 -33 19 -13 21 -45
4 -62 -38 -38 -148 18 -135 69 5 20 23 30 107 59 56 19 104 38 106 42 3 5 -32
115 -41 126 -1 1 -40 -11 -86 -28 -62 -23 -94 -29 -120 -25 -31 5 -193 -20
-209 -32 -2 -2 2 -8 10 -13 17 -11 11 -13 -65 -26 -36 -7 -49 -13 -48 -24 1
-8 14 -93 28 -188 15 -96 25 -176 22 -179 -10 -10 -67 31 -67 48 0 10 -3 24
-6 33 -5 14 -9 14 -37 0 -67 -35 -178 -9 -226 52 -23 29 -27 74 -11 104 8 15
6 21 -8 29 -10 5 -24 21 -32 35 -7 14 -22 26 -32 26 -11 0 -28 5 -39 10 -24
13 -24 20 6 -170 30 -188 31 -203 8 -198 -17 3 -28 58 -67 331 -4 26 -11 45
-17 42 -5 -4 -9 -1 -9 4 0 6 5 11 10 11 6 0 9 5 8 12 -3 12 80 23 152 20 19
-1 58 -2 85 -3 28 -1 39 -3 25 -6 -48 -8 -56 -13 -40 -23 13 -8 13 -10 -1 -10
-29 0 -43 -27 -31 -55 9 -20 19 -25 47 -25 20 0 50 -7 68 -17 l32 -16 -39 -13
c-53 -19 -66 -32 -66 -65 0 -64 102 -59 160 8 33 37 35 49 19 140 -8 47 -15
63 -28 63 -27 0 -86 25 -88 37 -2 7 14 15 35 18 91 16 92 18 25 58 -83 51
-160 85 -209 93 -34 5 -45 2 -69 -18 -22 -19 -29 -35 -33 -77 -4 -41 -8 -51
-21 -49 -12 3 -16 15 -14 51 1 53 33 112 65 123 64 20 163 -6 272 -72 79 -48
96 -63 89 -80 -4 -11 2 -13 28 -8 19 3 40 8 47 10 7 2 21 0 31 -5 19 -11 190
22 200 38 3 5 53 25 111 46 58 20 131 46 163 58 56 19 60 19 87 4 28 -17 33
-16 222 46 225 75 515 188 713 281 150 69 154 71 139 56z m-8027 -35 c8 -22
-4 -30 -22 -15 -21 17 -65 -2 -65 -29 0 -22 15 -36 50 -46 34 -10 70 -44 70
-67 0 -59 -67 -112 -115 -90 -16 8 -23 17 -19 27 7 17 20 20 29 5 10 -17 51
-11 69 9 24 27 17 53 -19 69 -72 31 -80 38 -83 68 -4 42 30 84 69 84 17 0 32
-6 36 -15z m2470 -43 c6 -4 -108 -7 -253 -7 -145 0 -256 3 -246 7 23 9 484 10
499 0z m223 -6 c14 -2 -22 -3 -80 -4 -58 0 -95 3 -82 6 21 7 105 5 162 -2z
m-940 -6 c0 -6 -30 -9 -72 -8 l-73 2 70 6 c39 4 71 7 73 8 1 1 2 -2 2 -8z
m153 3 c-24 -2 -62 -2 -85 0 -24 2 -5 4 42 4 47 0 66 -2 43 -4z m-2095 -48 c2
-34 -4 -49 -38 -93 -40 -52 -40 -52 -20 -72 38 -38 85 -20 109 40 l10 25 0
-23 c1 -14 -13 -38 -33 -58 -45 -45 -84 -46 -120 -3 -59 69 -13 236 63 227 23
-3 26 -8 29 -43z m1782 29 c-36 -8 -100 -9 -100 -2 0 5 26 7 58 7 31 -1 50 -3
42 -5z m-200 -20 c-121 -16 -181 -15 -75 1 44 7 100 12 125 12 28 0 9 -5 -50
-13z m2170 -12 c0 -4 -17 -6 -37 -4 -59 5 -63 10 -10 11 26 1 47 -3 47 -7z
m-2375 -13 c-27 -5 -115 -21 -195 -35 -690 -123 -1394 -413 -2039 -843 -68
-45 -125 -80 -127 -78 -5 4 189 133 346 229 549 337 1179 582 1795 697 202 38
204 38 240 39 18 0 10 -4 -20 -9z m2680 -4 l180 -14 -150 6 c-178 6 -352 20
-265 21 30 0 136 -6 235 -13z m1860 5 c-27 -4 -97 -10 -155 -13 l-105 -6 110
13 c61 7 130 13 155 13 l45 0 -50 -7z m-6207 -35 c14 -30 23 -31 47 -5 10 11
22 20 26 20 4 0 8 -37 8 -83 0 -84 12 -137 31 -137 6 0 19 15 30 33 23 37 27
20 5 -23 -21 -41 -54 -49 -78 -19 -17 21 -19 35 -14 106 l5 82 -24 -16 c-17
-10 -24 -25 -25 -47 0 -17 -5 -40 -10 -51 -6 -14 -7 -5 -3 30 5 45 3 51 -17
60 -29 13 -44 38 -36 59 10 24 42 19 55 -9z m-642 7 c22 -15 34 -52 34 -111 0
-33 -4 -62 -8 -65 -19 -12 -30 13 -28 66 1 42 -4 62 -16 75 -17 16 -19 16 -45
-3 -54 -40 -104 -169 -89 -228 7 -30 44 -43 74 -27 34 18 30 -4 -15 -97 -79
-160 -68 -262 27 -262 56 0 105 42 182 158 36 54 38 55 46 31 8 -19 4 -32 -22
-68 -59 -83 -149 -141 -220 -141 -25 0 -43 8 -64 30 -52 51 -52 124 -2 236
l27 61 -27 10 c-38 14 -46 57 -25 130 23 78 48 125 93 173 38 39 56 47 78 32z
m5934 -7 c129 0 330 3 445 6 168 5 191 5 115 -3 -121 -13 -1047 -13 -1200 0
-89 7 -56 8 145 3 143 -3 366 -6 495 -6z m-5381 -94 c73 -73 34 -243 -60 -265
l-27 -6 20 -82 c12 -54 15 -85 9 -91 -13 -13 -9 -24 -70 203 -35 131 -46 189
-39 198 18 22 27 13 34 -35 l7 -48 12 53 c20 86 69 118 114 73z m6859 -68 c5
-31 -37 -51 -73 -35 -48 22 -19 64 40 59 23 -1 31 -8 33 -24z m-7094 -40 c-4
-16 -11 -38 -15 -51 -18 -48 -10 -67 41 -105 28 -21 48 -42 45 -47 -9 -15 -23
-12 -63 15 -20 14 -40 25 -44 25 -4 0 -10 -22 -14 -50 -4 -27 -13 -58 -20 -67
-18 -24 -18 -5 2 70 18 69 19 65 -61 124 -23 16 -27 24 -18 33 8 9 22 5 56
-19 l45 -31 12 53 c16 72 18 77 30 77 6 0 8 -11 4 -27z m6118 -18 c33 -22 158
-194 158 -217 0 -4 22 -8 49 -8 28 0 53 -5 57 -11 3 -6 15 -9 25 -6 11 3 19 2
19 -3 0 -11 -38 -20 -84 -20 l-38 0 3 -185 c3 -133 1 -185 -7 -185 -27 0 -34
34 -40 193 l-7 167 -69 0 -68 0 0 -134 c0 -145 -7 -166 -54 -166 -25 0 -83 36
-99 61 -26 42 31 100 82 84 20 -6 21 -3 21 68 l0 74 -97 6 c-54 4 -148 7 -209
7 l-112 0 -1 -192 c-1 -106 -4 -194 -6 -196 -2 -3 -11 -2 -20 1 -13 5 -15 33
-15 180 0 96 -2 176 -5 179 -3 3 -17 3 -30 0 l-25 -4 -2 -180 -3 -180 -27 27
c-16 15 -28 38 -28 51 0 22 -3 23 -49 17 -64 -7 -93 1 -135 38 -47 41 -64 91
-41 125 15 23 15 26 -5 51 -11 14 -20 31 -20 37 -1 12 -69 47 -110 57 -51 11
124 21 184 10 63 -12 93 -27 39 -19 -35 5 -40 -1 -21 -20 9 -9 7 -12 -9 -12
-11 0 -24 -7 -27 -16 -9 -24 12 -54 39 -54 13 0 37 -11 52 -25 l28 -24 -32 -1
c-36 0 -73 -29 -73 -58 0 -61 120 -54 164 10 23 32 23 168 0 168 -23 0 -74 32
-74 47 0 16 215 19 225 3 8 -13 295 -14 295 -1 0 5 62 12 138 16 75 4 144 10
154 14 14 5 8 19 -37 88 -50 76 -91 117 -111 111 -15 -3 -74 13 -74 21 0 37
81 41 132 6z m-3357 -165 c-11 -5 -56 -8 -100 -7 l-80 1 75 6 c41 4 86 7 100
7 23 1 23 1 5 -7z m227 3 c-40 -2 -103 -2 -140 0 -37 2 -4 3 73 3 77 0 107 -2
67 -3z m466 0 c-43 -2 -113 -2 -155 0 -43 1 -8 3 77 3 85 0 120 -2 78 -3z
m-878 -15 c0 -5 -21 -8 -46 -8 -39 0 -45 -2 -35 -14 10 -12 5 -16 -33 -21 -53
-8 -52 -3 -36 -150 5 -49 12 -121 16 -160 l6 -70 -27 26 c-19 19 -29 40 -32
73 -6 51 -5 51 -100 40 -50 -6 -53 -8 -53 -35 0 -32 -23 -59 -52 -59 -25 0
-88 62 -88 87 0 27 20 43 53 43 l30 0 -7 61 c-3 34 -6 73 -6 85 0 19 -5 24
-24 24 -14 0 -28 5 -32 11 -4 7 -27 9 -63 5 l-56 -5 48 12 c27 7 45 15 41 20
-4 4 -3 7 2 8 5 0 81 8 169 18 162 18 325 22 325 9z m2235 -58 c71 -7 59 -7
-55 -3 -80 3 -183 9 -230 13 -66 7 -54 7 55 3 77 -3 181 -9 230 -13z m1775 -1
c-25 -4 -67 -7 -95 -7 l-50 1 55 7 c30 4 73 7 95 7 l40 0 -45 -8z m-4655 -23
c-73 -15 -165 -45 -165 -54 0 -4 20 -77 44 -162 35 -125 41 -156 29 -158 -27
-7 -40 19 -79 159 -21 78 -44 143 -50 146 -6 2 -34 -2 -60 -10 -58 -17 -59
-19 -21 -157 22 -81 24 -98 12 -115 -28 -42 -145 -11 -153 41 -4 28 34 64 68
64 l29 0 -20 67 c-10 38 -19 69 -19 69 0 1 -21 -4 -47 -12 -27 -8 -60 -13 -75
-10 -29 6 -247 -60 -304 -92 l-32 -17 39 -84 c40 -86 47 -115 29 -126 -24 -15
-4 -24 88 -41 110 -20 124 -25 114 -41 -10 -15 -390 61 -412 83 -13 14 -13 17
9 35 21 17 33 19 73 14 26 -4 48 -5 48 -2 0 14 -54 127 -60 127 -4 0 -28 -9
-53 -20 -25 -11 -52 -18 -59 -15 -14 5 -181 -61 -271 -106 l-37 -20 27 -47
c15 -26 60 -101 100 -167 52 -87 69 -123 61 -132 -6 -7 -14 -11 -18 -8 -4 2
-49 74 -100 160 -51 86 -96 157 -100 160 -3 2 -21 -5 -38 -15 l-32 -20 99
-162 c54 -90 98 -164 96 -166 -1 -1 -16 1 -34 4 -24 5 -38 18 -57 50 -14 24
-31 44 -37 43 -17 0 -151 -85 -155 -97 -3 -9 24 -19 162 -59 12 -3 15 -8 8
-15 -13 -13 -306 68 -328 90 -35 35 -4 61 52 44 19 -5 34 -8 34 -5 0 4 -68
124 -75 131 -2 2 -16 -4 -30 -14 -15 -10 -41 -17 -56 -16 -31 2 -108 -42 -318
-182 -63 -42 -116 -75 -118 -73 -3 4 232 161 347 232 25 16 50 34 55 41 17 21
376 234 396 234 10 0 21 5 24 10 5 8 11 8 19 1 14 -12 250 89 276 118 8 9 43
30 78 46 34 16 62 32 62 35 0 4 -34 17 -75 29 -41 13 -75 27 -75 32 0 5 -11 3
-25 -3 -30 -13 -44 -4 -29 20 24 38 58 38 179 -3 99 -33 119 -37 141 -26 16 7
44 9 73 5 47 -6 171 23 216 52 11 7 97 34 190 60 131 36 189 48 253 49 45 2
86 5 89 9 4 3 18 5 32 5 14 -1 -1 -7 -34 -13z m3123 7 c-27 -2 -69 -2 -95 0
-27 2 -5 3 47 3 52 0 74 -1 48 -3z m-2144 -174 c32 -25 61 -79 77 -144 l12
-48 194 7 193 8 0 -36 0 -36 120 0 c66 0 120 -4 120 -8 0 -4 -54 -6 -120 -4
l-120 4 0 -24 0 -25 -189 -8 -189 -7 -7 -46 c-11 -80 -35 -140 -66 -167 -54
-45 -103 -27 -143 53 -25 50 -46 133 -46 182 0 28 -3 30 -37 32 l-38 1 38 4
37 4 0 49 c0 64 34 171 62 197 42 38 66 41 102 12z m-254 -269 c0 -6 -28 -9
-67 -8 l-68 1 65 7 c36 4 66 7 68 8 1 1 2 -2 2 -8z m-145 -15 c-23 -8 -85 -10
-85 -3 0 4 21 8 48 7 26 0 43 -2 37 -4z m4425 -11 c-41 -7 -88 -12 -105 -12
-37 1 108 25 150 25 17 0 -4 -5 -45 -13z m-4675 -19 c-222 -31 -262 -36 -248
-29 19 9 325 52 368 52 22 0 -32 -10 -120 -23z m4535 5 c0 -5 -19 -9 -42 -9
l-43 2 40 7 c22 4 41 8 43 9 1 0 2 -3 2 -9z m-1765 -30 c83 -7 74 -8 -55 -3
-85 3 -195 9 -245 13 -72 7 -62 7 55 3 80 -3 190 -9 245 -13z m1625 9 c-30 -4
-104 -10 -165 -12 l-110 -5 120 12 c66 7 140 13 165 13 45 1 45 0 -10 -8z
m-4785 -49 c-693 -149 -1280 -397 -1907 -806 -87 -57 -158 -101 -158 -99 0 3
55 42 122 87 419 281 903 520 1360 672 207 69 622 174 688 174 14 0 -33 -12
-105 -28z m5679 -56 c9 -3 16 -15 16 -25 0 -23 -4 -23 -34 -4 -27 18 -53 11
-61 -16 -8 -26 0 -36 46 -60 22 -11 45 -31 51 -44 25 -56 -51 -132 -106 -107
-30 13 -38 49 -8 37 37 -17 69 -17 85 0 31 31 17 54 -62 97 -43 24 -43 66 0
102 31 27 46 31 73 20z m-166 -61 c4 -27 -3 -29 -24 -8 -20 20 -37 19 -58 -4
-19 -21 -12 -48 14 -56 31 -10 80 -61 80 -84 0 -35 -50 -82 -88 -83 -38 -1
-57 14 -48 37 5 15 7 15 22 1 21 -22 57 -20 78 3 21 23 14 57 -15 66 -32 11
-79 56 -79 77 0 11 13 33 30 49 37 37 83 38 88 2z m-473 -41 c10 -36 20 -39
53 -16 32 22 35 15 17 -37 -9 -24 -19 -71 -22 -105 -7 -72 6 -88 43 -53 30 28
32 14 2 -18 -27 -29 -64 -30 -78 -2 -13 23 0 101 25 149 20 39 20 41 -15 29
-16 -6 -30 -14 -30 -19 0 -14 -31 -82 -35 -78 -3 3 2 23 11 45 16 39 15 42 -5
62 -20 20 -28 61 -14 75 15 15 38 -1 48 -32z m285 -14 c0 -24 -11 -42 -50 -81
-54 -54 -59 -67 -34 -91 24 -25 55 -19 92 17 22 20 31 25 24 12 -14 -28 -53
-61 -79 -69 -26 -8 -78 16 -87 39 -21 55 6 157 50 196 44 38 84 27 84 -23z
m-676 -67 c9 -14 10 -51 3 -121 -9 -84 2 -104 39 -70 22 21 25 22 16 5 -5 -11
-20 -29 -32 -40 -22 -20 -22 -20 -40 3 -16 20 -18 35 -13 112 6 87 5 90 -15
90 -17 0 -29 -16 -56 -72 -19 -40 -37 -92 -41 -115 -3 -23 -13 -44 -20 -47
-12 -4 -13 14 -8 109 4 73 2 115 -4 115 -30 0 -84 -95 -103 -182 -7 -31 -19
-59 -26 -62 -10 -4 -12 13 -8 77 7 130 14 165 30 171 22 8 24 8 20 -6 -3 -7
-7 -35 -10 -63 l-5 -50 20 40 c62 118 144 129 125 17 -6 -36 -6 -35 24 18 17
30 38 61 47 68 20 14 49 16 57 3z m-3079 -196 c-5 -2 -174 -5 -375 -7 -201 -2
-327 -1 -280 2 91 7 672 11 655 5z m-750 -15 c-3 -5 -34 -9 -68 -8 l-62 1 60
7 c33 4 64 7 68 8 5 1 5 -2 2 -8z m-157 -17 c-16 -2 -40 -2 -55 0 -16 2 -3 4
27 4 30 0 43 -2 28 -4z m-178 -19 c-52 -8 -104 -13 -115 -11 -25 4 116 24 170
24 22 0 -3 -6 -55 -13z m-190 -26 c-307 -52 -608 -126 -862 -211 -438 -147
-954 -403 -1352 -673 -60 -41 -111 -73 -113 -71 -2 2 48 38 110 79 654 436
1306 711 2007 847 191 37 198 38 235 38 17 1 5 -4 -25 -9z m2274 -1220 c4 -90
9 -201 12 -248 2 -47 11 -238 19 -425 71 -1630 131 -2853 141 -2864 1 -1 114
75 249 169 l247 173 80 -22 c66 -18 83 -20 90 -9 5 7 21 33 35 58 61 103 58
101 108 83 l45 -15 27 33 c16 18 33 40 40 48 10 14 18 14 73 -5 l61 -21 26 36
c15 20 29 39 33 43 3 4 716 -266 1585 -600 l1580 -608 0 -877 c0 -482 2 -877
6 -877 3 0 10 5 17 12 6 6 15 8 19 5 9 -9 -43 -56 -88 -80 -41 -22 -311 -207
-837 -575 -216 -151 -395 -272 -398 -269 -6 6 -13 163 -39 827 -16 429 -21
559 -31 758 -6 114 -8 124 -28 133 -11 5 -192 59 -401 120 -808 236 -1895 557
-1983 586 -23 7 35 -45 201 -180 110 -88 134 -113 117 -115 -55 -9 -619 495
-720 643 -18 28 -49 68 -67 89 -22 27 -37 58 -45 98 -7 32 -15 58 -19 58 -4 0
-6 15 -3 33 3 17 0 68 -6 112 -6 44 -11 97 -10 118 0 21 -4 111 -10 200 -5 89
-21 394 -35 677 -33 692 -40 853 -80 1740 -9 190 -20 440 -26 555 -23 484 -23
545 -7 545 13 0 16 -27 22 -162z m1844 120 c-26 -116 -159 -685 -163 -695 -9
-25 5 -12 21 20 36 69 88 139 123 163 92 62 168 -1 141 -120 -16 -71 -53 -137
-103 -183 -56 -52 -100 -62 -162 -39 -34 13 -49 15 -64 6 -12 -6 -21 -7 -21
-3 0 7 155 793 165 840 4 19 45 51 66 53 4 0 3 -19 -3 -42z m417 30 c-17 -50
-175 -774 -175 -802 0 -47 22 -57 55 -26 14 13 28 20 32 17 9 -9 -54 -74 -78
-80 -19 -5 -41 15 -53 47 -5 15 128 734 150 809 3 9 17 24 32 32 34 18 43 18
37 3z m958 -39 c23 -10 38 -31 50 -70 18 -57 -50 -176 -131 -227 -66 -43 -97
-49 -111 -23 -10 18 -6 23 45 47 96 46 173 132 174 197 0 25 -45 67 -72 67
-118 0 -280 -137 -362 -305 -47 -96 -66 -173 -67 -263 -1 -153 58 -234 171
-234 52 0 95 19 156 68 34 28 43 41 49 80 4 29 16 56 30 70 27 27 45 31 45 9
0 -34 -54 -262 -72 -304 -59 -139 -214 -232 -360 -216 -71 8 -94 23 -76 48 12
16 17 17 48 4 62 -26 115 -30 172 -13 94 28 149 103 181 249 8 37 13 67 11 67
-2 0 -19 -14 -38 -30 -83 -73 -201 -95 -283 -52 -186 97 -125 449 119 689 127
126 244 177 321 142z m-2070 -14 c178 -19 171 -17 153 -53 l-15 -29 -68 13
c-37 7 -71 10 -74 6 -3 -4 -22 -73 -42 -155 -108 -435 -234 -603 -483 -639
-76 -11 -134 -7 -134 10 0 5 6 16 13 25 11 16 18 16 66 6 148 -32 269 37 345
196 43 89 109 296 137 430 21 96 24 104 53 118 l31 15 -70 7 c-117 14 -305 11
-357 -4 -90 -26 -125 -92 -74 -140 25 -24 116 -51 170 -51 l29 0 -23 -25 c-28
-29 -30 -30 -100 -9 -72 21 -120 69 -120 118 0 53 24 91 74 121 93 55 240 66
489 40z m-2538 -120 c259 -70 454 -305 540 -650 12 -49 20 -93 18 -97 -14 -25
-31 2 -52 84 -28 110 -88 260 -133 336 -81 134 -209 239 -353 288 -70 24 -96
28 -200 28 -251 0 -430 -75 -596 -252 -116 -122 -163 -251 -163 -442 0 -103 4
-129 38 -250 62 -218 126 -338 280 -519 39 -46 90 -106 114 -134 81 -95 105
-171 82 -269 -16 -70 -91 -230 -127 -269 -144 -161 -276 -222 -768 -354 -342
-91 -450 -125 -537 -169 -73 -36 -85 -47 -110 -92 -92 -166 -74 -572 48 -1114
19 -85 46 -195 59 -245 29 -106 29 -105 10 -105 -15 0 -17 6 -70 218 -42 167
-79 352 -106 527 -26 164 -36 471 -20 575 14 87 52 177 89 214 61 57 219 112
682 236 441 117 648 220 696 346 9 24 23 44 31 44 19 0 78 129 93 203 20 101
0 149 -125 292 -229 260 -298 390 -375 700 -30 119 -24 270 14 391 96 303 424
514 776 500 58 -3 132 -12 165 -21z m2941 -351 c-14 -37 -66 -255 -66 -277 0
-14 7 -30 15 -37 13 -11 21 -9 45 8 46 34 48 26 5 -18 -44 -45 -78 -52 -96
-18 -12 23 -14 86 -3 123 3 11 -7 0 -23 -25 -34 -51 -106 -119 -128 -121 -8
-1 -21 -2 -27 -3 -20 -3 -65 22 -72 39 -21 55 3 159 52 226 64 86 143 125 199
97 25 -13 32 -12 58 4 37 22 49 23 41 2z m985 -120 c-47 -177 -39 -235 25
-185 40 32 42 16 3 -25 -64 -66 -121 -23 -102 77 6 27 9 49 7 49 -2 0 -11 -14
-20 -31 -25 -50 -93 -117 -128 -129 -138 -45 -147 170 -13 304 57 57 113 76
160 54 29 -14 35 -13 62 3 17 11 31 15 33 10 2 -6 -11 -62 -27 -127z m1455
119 c-18 -61 -66 -265 -66 -281 0 -11 7 -25 15 -32 13 -11 21 -9 46 9 44 33
45 20 2 -22 -67 -67 -110 -40 -100 62 4 45 3 52 -6 37 -55 -87 -135 -151 -177
-141 -39 9 -70 50 -70 94 0 155 173 327 266 266 15 -10 29 -13 33 -8 7 11 42
32 54 33 5 0 6 -8 3 -17z m-616 0 c0 -5 -14 -69 -31 -144 -19 -81 -29 -147
-25 -162 12 -50 70 -41 128 20 20 22 32 54 52 143 14 63 26 118 26 121 0 8 52
31 57 25 6 -6 -80 -358 -107 -441 -11 -34 -34 -78 -52 -99 -53 -65 -149 -94
-205 -63 -21 12 -22 14 -7 35 l15 22 26 -20 c31 -24 80 -26 111 -4 12 8 31 33
42 54 19 38 63 210 53 210 -3 0 -21 -13 -40 -30 -32 -28 -42 -32 -78 -32 -37
0 -45 4 -60 32 -15 29 -14 41 10 173 15 78 27 142 28 143 33 22 57 29 57 17z
m809 -30 c-4 -21 -15 -66 -23 -100 -8 -35 -12 -63 -10 -63 2 0 13 19 25 43 51
101 129 167 183 153 37 -9 42 -45 21 -135 -27 -114 -31 -179 -10 -187 10 -4
26 2 40 16 41 39 39 15 -2 -29 -45 -46 -74 -47 -93 -1 -9 22 -7 52 10 149 12
67 19 128 16 136 -7 20 -36 19 -65 -1 -37 -26 -114 -153 -141 -232 -16 -47
-31 -74 -43 -78 -10 -3 -20 -4 -22 -2 -2 2 11 79 29 172 24 128 37 172 51 182
34 25 44 18 34 -23z m-1202 -621 c7 -4 9 -13 4 -21 -6 -10 -13 -10 -29 -2 -38
20 -57 -12 -91 -154 -17 -72 -31 -134 -31 -137 0 -4 15 -9 33 -11 l32 -4 -36
-1 -36 -2 -33 -140 c-19 -78 -42 -154 -52 -171 -20 -34 -78 -65 -103 -55 -26
9 -7 26 29 26 19 0 39 7 46 16 15 17 81 304 74 316 -3 4 -13 8 -22 9 -10 1 -7
4 8 8 22 6 27 18 50 121 14 63 35 131 47 151 30 48 79 71 110 51z m-1387 -13
c0 -6 -22 -109 -49 -228 -27 -119 -50 -225 -51 -236 -5 -48 6 -58 34 -29 9 8
16 11 16 6 0 -4 -11 -19 -25 -32 -22 -21 -27 -22 -40 -9 -20 19 -21 85 -2 141
13 40 14 48 1 58 -23 20 -62 2 -90 -39 -30 -47 -42 -114 -24 -136 17 -21 24
-19 59 16 17 17 31 26 31 21 0 -15 -68 -72 -85 -72 -8 0 -25 10 -36 21 -58 58
39 217 126 207 25 -3 36 0 39 12 2 8 17 78 32 155 15 77 32 143 38 147 16 11
26 10 26 -3z m1579 -18 c11 -11 23 -35 26 -54 6 -30 -5 -137 -22 -217 -3 -14
20 25 50 85 62 123 116 187 145 169 30 -19 28 -45 -13 -241 -4 -15 16 15 44
67 49 92 97 150 125 150 7 0 20 -7 27 -16 11 -14 6 -50 -31 -235 -38 -186 -47
-219 -62 -219 -10 0 -18 6 -18 14 0 7 18 99 40 205 22 105 40 198 40 206 0 26
-28 16 -54 -18 -40 -52 -123 -234 -148 -324 -18 -65 -27 -83 -41 -83 -13 0
-17 5 -13 18 22 73 94 438 87 445 -4 4 -14 5 -22 2 -35 -13 -146 -238 -190
-383 -18 -63 -28 -82 -42 -82 -13 0 -17 5 -13 18 23 70 86 406 86 455 0 32
-23 45 -45 27 -14 -11 -32 -66 -49 -142 -4 -19 -11 -26 -21 -22 -19 8 -19 18
0 81 15 50 62 113 84 113 6 0 20 -9 30 -19z m-2299 -20 c0 -26 -43 -253 -56
-293 -4 -13 0 -18 13 -19 17 -1 17 -2 1 -6 -10 -2 -20 -14 -23 -26 -3 -12 -11
-49 -18 -82 -15 -68 -36 -82 -56 -38 -19 44 -63 103 -83 114 -15 8 -27 1 -67
-43 -61 -67 -134 -108 -206 -115 -49 -5 -55 -4 -49 11 4 11 18 16 43 16 133 0
220 85 360 356 58 111 92 154 121 154 15 0 20 -7 20 -29z m3207 -127 c8 -21
-13 -42 -28 -27 -13 13 -5 43 11 43 6 0 13 -7 17 -16z m-3057 -177 c0 -24 -17
-47 -34 -47 -6 0 -5 5 2 12 20 20 15 58 -7 58 -30 0 -73 -63 -78 -114 -4 -36
-1 -48 16 -65 24 -24 50 -22 87 8 11 9 5 1 -13 -16 -19 -19 -43 -33 -57 -33
-33 0 -65 29 -72 65 -8 44 41 133 85 156 40 21 71 11 71 -24z m230 -55 c-18
-72 -19 -112 -2 -112 3 0 14 7 24 17 10 9 18 11 18 5 0 -6 -12 -20 -26 -31
-19 -15 -30 -18 -39 -11 -19 16 -23 89 -8 140 12 40 12 46 -4 57 -22 17 -29
16 -57 -2 -26 -18 -66 -100 -66 -137 0 -54 41 -54 87 1 12 14 22 21 23 15 0
-16 -77 -84 -95 -84 -23 0 -55 37 -55 63 1 38 35 101 75 136 33 28 44 32 75
28 21 -3 44 -1 51 4 22 13 22 -3 -1 -89z m470 52 c0 -30 -43 -75 -90 -94 -35
-14 -38 -32 -10 -60 26 -26 42 -25 79 6 36 30 42 18 7 -15 -35 -33 -89 -38
-115 -12 -25 25 -28 88 -7 129 16 30 63 77 86 84 25 9 50 -11 50 -38z m2521
14 c9 -16 7 -25 -10 -41 l-20 -21 6 37 c5 32 3 37 -14 37 -25 0 -48 -25 -68
-73 -20 -49 -19 -83 5 -107 27 -27 42 -25 81 7 l33 28 -17 -26 c-51 -78 -147
-57 -147 31 0 48 17 85 57 121 46 43 74 45 94 7z m-2407 -10 c-4 -18 -8 -44
-9 -58 -1 -35 -35 -130 -46 -130 -13 0 -11 26 7 116 20 102 21 104 39 104 14
0 15 -6 9 -32z m118 -22 l-2 -49 26 39 c32 48 52 64 80 64 31 0 35 -21 19 -85
-26 -98 -16 -138 26 -103 7 7 2 -1 -13 -17 -26 -27 -29 -28 -44 -13 -15 15
-16 25 -6 87 16 92 15 111 -3 111 -21 0 -70 -71 -97 -141 -13 -32 -29 -59 -36
-59 -8 0 -10 8 -7 23 42 181 37 208 -26 138 -21 -24 -39 -39 -39 -32 0 6 16
29 37 51 27 31 43 40 62 38 24 -3 26 -6 23 -52z m258 42 c0 -7 -9 -49 -19 -93
-26 -107 -5 -135 56 -77 23 21 32 42 43 99 8 45 19 74 28 78 8 3 17 4 19 1 2
-2 -12 -68 -32 -147 -39 -154 -61 -197 -114 -219 -36 -14 -81 -6 -81 15 0 18
2 18 35 3 53 -24 93 20 110 121 l7 43 -31 -23 c-26 -19 -34 -21 -56 -11 -29
13 -31 31 -14 131 11 65 23 91 40 91 5 0 9 -6 9 -12z m480 -8 c26 -26 26 -84
1 -130 -21 -41 -74 -80 -108 -80 -34 0 -73 42 -73 80 0 106 118 192 180 130z
m947 8 c-15 -42 -39 -168 -34 -182 9 -23 31 -20 65 9 24 20 31 37 42 101 12
67 29 98 45 82 3 -3 -5 -44 -17 -91 -18 -68 -20 -89 -11 -98 10 -10 17 -9 33
6 11 10 20 13 20 7 0 -12 -48 -52 -62 -52 -6 0 -12 9 -15 20 -6 24 -4 24 -47
-1 -40 -23 -72 -19 -81 11 -8 26 24 183 39 192 17 12 29 9 23 -4z m303 -3 c18
-22 2 -40 -20 -20 -25 22 -64 16 -68 -11 -2 -14 8 -29 33 -48 28 -22 35 -34
35 -61 0 -60 -76 -96 -124 -60 -15 12 -17 18 -8 27 9 9 16 8 30 -5 33 -30 82
-16 82 23 0 9 -16 31 -35 50 -42 40 -47 81 -13 104 28 20 72 21 88 1z m103 -7
c-3 -13 -11 -45 -19 -72 -25 -89 -14 -129 26 -93 8 6 4 0 -9 -15 -30 -34 -38
-35 -52 -5 -8 17 -6 45 5 106 18 92 21 101 41 101 8 0 11 -8 8 -22z m-4931
-809 c-4 -3 -74 -37 -156 -75 -173 -79 -216 -108 -250 -166 -50 -86 -56 -140
-56 -550 0 -215 -4 -378 -9 -378 -14 0 -21 27 -21 78 l0 47 -53 -101 c-177
-335 -509 -744 -1011 -1244 -152 -152 -219 -211 -226 -204 -8 8 58 79 223 245
524 525 851 936 1016 1279 l46 95 6 315 c5 297 6 318 28 373 41 104 92 146
286 237 120 56 172 75 177 67 4 -6 4 -15 0 -18z m-52 -266 c-28 -19 -64 -39
-79 -44 -26 -9 -27 -11 -21 -62 8 -61 -7 -394 -20 -452 -6 -26 -7 21 -2 130 9
220 9 333 -1 368 -6 24 -5 27 15 27 24 0 122 52 133 70 3 6 11 8 16 4 6 -3
-13 -22 -41 -41z m77 -819 c2 -5 -43 -33 -100 -61 l-104 -51 -7 -76 c-41 -449
-304 -1009 -696 -1481 -50 -60 -168 -188 -263 -282 -153 -155 -175 -173 -204
-173 -83 0 -258 83 -498 235 -82 52 -157 99 -165 104 -12 8 -12 12 -3 22 9 9
39 -6 135 -68 222 -145 408 -241 502 -258 l38 -8 135 134 c159 158 313 330
406 451 246 324 424 670 522 1013 28 98 65 307 65 367 l0 38 108 54 c105 54
123 59 129 40z m2243 -1934 c167 -37 245 -124 195 -219 -76 -149 -450 -273
-775 -258 -170 8 -284 42 -341 103 -36 38 -34 108 5 158 75 99 299 192 541
225 87 12 302 7 375 -9z m-4168 -192 c47 -126 60 -189 65 -319 7 -158 -10
-243 -74 -371 -50 -100 -163 -232 -182 -213 -8 8 6 28 44 68 187 198 235 481
133 776 -40 117 -43 131 -26 131 8 0 25 -30 40 -72z m1948 -299 c0 -5 -15 -49
-34 -97 -162 -413 -171 -829 -27 -1138 129 -275 393 -502 748 -645 121 -49
351 -125 496 -164 170 -47 162 -44 151 -55 -13 -13 -208 40 -449 121 -328 110
-571 246 -740 414 -130 130 -220 272 -275 438 -13 37 -25 67 -29 67 -3 0 -49
-11 -101 -25 -52 -13 -96 -22 -99 -20 -5 6 -20 318 -15 326 2 3 31 9 64 12 33
4 72 10 85 13 18 4 25 2 25 -9 0 -19 -12 -23 -85 -32 l-57 -8 4 -128 c2 -70 6
-130 9 -133 4 -4 159 31 166 38 1 1 -4 42 -12 91 -37 227 -2 498 104 806 21
63 42 122 46 131 7 18 25 15 25 -3z m2330 -51 c56 -85 142 -265 173 -363 52
-160 62 -235 62 -450 -1 -224 -16 -325 -81 -525 -39 -118 -143 -342 -156 -338
-14 5 -12 11 31 96 164 327 227 724 166 1041 -35 179 -113 372 -209 514 -25
37 -46 72 -46 77 0 24 22 5 60 -52z m-1694 -295 c-41 -195 -52 -396 -27 -548
30 -184 114 -378 231 -533 123 -164 341 -344 523 -433 67 -33 83 -49 49 -49
-24 0 -177 88 -276 159 -97 69 -254 222 -323 316 -216 291 -285 633 -213 1048
9 48 16 67 27 67 11 0 14 -7 9 -27z m-2377 -117 c-11 -9 -338 -176 -794 -406
-960 -486 -1094 -559 -1192 -656 -53 -52 -64 -69 -82 -131 -12 -38 -21 -91
-21 -116 0 -166 289 -427 695 -627 235 -116 432 -170 623 -170 109 0 836 25
1012 35 52 3 210 10 350 15 741 29 1487 82 1661 117 24 5 31 3 27 -7 -6 -19
-38 -26 -180 -40 -68 -6 -139 -13 -158 -15 -19 -2 -102 -9 -185 -15 -82 -6
-213 -15 -290 -20 -143 -10 -791 -41 -1260 -60 -143 -6 -357 -15 -475 -20
-118 -5 -314 -10 -434 -10 -219 0 -220 0 -350 35 -179 47 -292 93 -458 187
-349 195 -576 412 -603 575 -7 45 14 140 47 205 10 20 39 58 64 83 88 86 244
173 999 556 275 139 613 310 750 381 138 70 252 123 254 117 1 -6 1 -11 0 -13z
m5689 -671 c23 -23 -43 -7 -275 65 -299 93 -336 107 -329 119 5 8 591 -171
604 -184z m-821 -574 c74 -37 81 -99 26 -213 l-38 -77 -120 -79 c-314 -208
-620 -308 -1171 -383 -187 -25 -536 -36 -677 -21 -56 7 -131 14 -167 17 -77 7
-214 38 -267 60 -20 9 -52 27 -70 41 -27 21 -33 32 -33 63 0 33 7 45 42 76 22
21 78 55 122 76 89 41 114 49 116 35 1 -6 -38 -27 -86 -47 -142 -62 -200 -123
-159 -169 24 -26 108 -66 182 -85 113 -30 453 -57 633 -51 252 9 550 49 825
112 428 97 815 319 872 500 15 50 16 58 2 82 -24 45 -73 62 -173 62 -81 0 -87
1 -75 16 19 23 162 13 216 -15z"/>
<path d="M4330 11994 c-72 -31 -111 -94 -111 -179 0 -111 73 -195 169 -195 74
0 133 47 161 129 34 103 -26 223 -126 250 -48 14 -51 13 -93 -5z"/>
<path d="M4374 11526 c-45 -20 -82 -64 -100 -120 -14 -41 -15 -57 -5 -103 7
-29 24 -67 38 -83 24 -29 28 -30 103 -30 43 0 81 -4 84 -8 3 -5 -29 -7 -72 -5
-73 3 -76 2 -47 -12 32 -15 76 -19 113 -9 18 5 22 13 22 50 0 32 4 44 15 44 9
0 15 -9 15 -25 0 -36 13 -31 40 17 31 55 33 138 4 192 -43 83 -138 125 -210
92z"/>
<path d="M4244 11093 c3 -54 9 -160 12 -235 l7 -138 63 0 64 0 -6 168 c-7 244
-8 245 -54 276 -22 14 -51 26 -66 26 l-27 0 7 -97z"/>
<path d="M4446 11133 l-49 -4 7 -142 c3 -78 9 -214 12 -302 3 -88 9 -234 12
-325 l7 -165 58 -3 59 -3 -7 248 c-4 136 -10 251 -14 255 -3 4 -28 9 -56 11
l-50 3 54 2 54 2 -6 152 c-4 83 -7 180 -7 215 0 45 -4 62 -12 61 -7 -1 -35 -3
-62 -5z"/>
<path d="M8105 10579 c-11 -17 1 -21 15 -4 8 9 8 15 2 15 -6 0 -14 -5 -17 -11z"/>
<path d="M1115 11160 c-17 -32 -21 -120 -5 -120 13 0 39 41 50 78 18 65 -16
98 -45 42z"/>
<path d="M860 11108 c0 -18 18 -34 28 -24 3 4 -2 14 -11 23 -16 16 -17 16 -17
1z"/>
<path d="M735 10997 c-39 -29 -43 -207 -4 -228 23 -12 53 2 69 31 13 25 13
119 -1 159 -14 39 -40 55 -64 38z"/>
<path d="M6592 10404 c-33 -23 -29 -54 8 -54 31 0 56 30 46 56 -7 18 -26 18
-54 -2z"/>
<path d="M2818 10643 c-34 -4 -37 -6 -33 -31 2 -15 7 -53 10 -84 l6 -58 52 5
c105 11 99 6 91 88 -3 40 -9 75 -11 80 -4 7 -45 7 -115 0z"/>
<path d="M2730 10395 c-8 -9 -8 -15 -2 -15 12 0 26 19 19 26 -2 2 -10 -2 -17
-11z"/>
<path d="M2125 10326 c-19 -28 -11 -57 13 -49 26 9 40 32 35 53 -7 27 -29 25
-48 -4z"/>
<path d="M1600 10180 c0 -5 5 -10 10 -10 6 0 10 5 10 10 0 6 -4 10 -10 10 -5
0 -10 -4 -10 -10z"/>
<path d="M947 10049 l-68 -41 23 -36 c12 -20 32 -54 45 -74 l23 -37 70 40 c38
23 70 43 70 46 0 10 -83 143 -89 143 -3 0 -37 -18 -74 -41z"/>
<path d="M3404 10415 c-32 -49 -43 -100 -44 -201 0 -113 18 -190 57 -242 35
-46 61 -40 91 20 17 33 26 72 29 129 l6 82 -81 -6 c-48 -3 -80 -1 -76 4 3 5
39 9 81 9 l76 0 -7 43 c-16 101 -62 187 -100 187 -9 0 -23 -11 -32 -25z"/>
<path d="M7450 9928 c0 -9 5 -20 11 -23 17 -11 20 0 4 21 -13 17 -14 17 -15 2z"/>
<path d="M7691 9909 c-20 -33 -36 -97 -27 -107 11 -10 65 50 76 84 20 59 -17
76 -49 23z"/>
<path d="M6291 5329 c-12 -17 -21 -32 -19 -34 2 -3 89 -34 194 -70 104 -37
232 -82 284 -100 52 -19 194 -68 315 -110 121 -42 483 -169 804 -281 321 -112
586 -203 587 -201 2 2 -35 18 -84 37 -77 29 -2022 776 -2047 786 -6 3 -21 -9
-34 -27z"/>
<path d="M6095 5279 c-14 -18 -22 -35 -18 -39 4 -4 73 -28 153 -53 80 -25 217
-68 305 -95 88 -28 331 -105 540 -171 209 -66 524 -165 700 -219 176 -55 443
-139 594 -187 150 -47 275 -84 278 -81 2 2 -13 10 -34 16 -42 14 -754 262
-1063 370 -107 38 -384 134 -615 215 -231 81 -503 175 -604 211 -101 35 -189
64 -196 64 -7 0 -25 -14 -40 -31z"/>
<path d="M5914 5177 c-23 -40 -41 -73 -40 -74 1 -1 251 -67 556 -147 741 -193
1998 -523 2085 -546 39 -10 158 -42 265 -70 107 -28 219 -58 248 -67 30 -8 55
-13 58 -10 2 2 -37 16 -88 32 -51 15 -185 56 -298 92 -113 35 -304 95 -425
133 -348 108 -2089 656 -2245 706 -41 13 -75 24 -75 24 0 -1 -19 -33 -41 -73z"/>
<path d="M5431 4948 l-244 -171 7 -103 c4 -57 9 -110 12 -117 3 -8 86 -36 192
-65 103 -28 419 -114 702 -192 283 -78 655 -179 825 -226 171 -46 360 -97 420
-114 391 -106 814 -219 1068 -285 l218 -56 67 47 c129 92 468 327 580 402 62
42 109 79 105 83 -8 7 -111 34 -753 204 -976 258 -2923 765 -2938 765 -9 -1
-127 -78 -261 -172z"/>
<path d="M5215 4489 c18 -84 31 -97 76 -74 28 15 95 14 122 -2 4 -2 -17 -24
-48 -47 l-55 -43 22 -29 c12 -16 23 -31 24 -33 2 -2 45 22 95 54 86 53 95 56
136 50 23 -3 43 -9 43 -13 0 -4 -45 -40 -100 -81 -110 -81 -118 -89 -97 -97 8
-3 74 33 149 81 l135 85 52 -11 c28 -6 51 -13 51 -15 0 -2 -65 -47 -145 -100
-134 -89 -148 -96 -171 -85 -52 23 -48 19 89 -108 37 -34 72 -59 76 -56 5 3
29 -1 53 -9 24 -8 210 -64 413 -125 337 -100 638 -188 1633 -481 l344 -100
245 175 c139 99 240 177 232 179 -8 3 -86 24 -174 46 -180 47 -690 182 -865
230 l-115 32 -199 -127 -199 -126 -68 16 c-38 10 -69 20 -69 24 0 4 85 61 189
127 105 65 187 122 183 126 -4 3 -86 27 -182 53 -96 25 -181 48 -187 50 -7 2
-12 0 -10 -5 1 -5 -83 -64 -187 -130 l-188 -120 -62 16 c-33 8 -65 19 -69 23
-5 5 77 62 182 127 105 66 190 121 191 124 0 3 -45 17 -100 32 l-99 27 -108
-67 c-59 -37 -151 -93 -203 -125 l-95 -57 -60 17 c-33 9 -64 19 -68 23 -9 8
366 240 391 241 9 0 2 5 -17 10 -31 9 -41 6 -135 -52 -55 -34 -145 -89 -199
-122 l-97 -59 -70 17 c-39 9 -70 20 -70 24 1 3 86 58 190 121 105 63 190 118
190 121 0 4 -21 12 -47 18 -68 17 -925 252 -942 259 -10 4 -12 -2 -6 -29z
m942 -247 c8 -5 -57 -49 -183 -125 l-196 -118 -49 32 c-27 17 -49 34 -49 38 0
4 75 48 168 99 l167 93 64 -6 c36 -3 70 -9 78 -13z m887 -237 c32 -9 57 -18
55 -19 -2 -2 -91 -58 -197 -124 l-194 -121 -64 17 c-36 10 -65 22 -66 27 0 14
376 245 392 241 8 -3 41 -12 74 -21z m526 -143 l54 -17 -79 -51 c-44 -28 -133
-83 -198 -123 l-117 -73 -70 18 c-39 10 -70 20 -70 23 0 14 377 240 400 240
14 0 50 -8 80 -17z m210 -61 l55 -17 -40 -26 c-22 -14 -111 -71 -198 -126
l-158 -100 -66 19 c-36 10 -68 20 -70 22 -9 10 373 246 397 246 14 0 50 -8 80
-18z m328 -87 c37 -9 70 -20 74 -23 4 -4 -88 -62 -205 -129 l-212 -121 -73 18
c-41 11 -75 21 -77 23 -3 2 414 247 423 248 2 0 33 -7 70 -16z m225 -65 c38
-11 66 -24 61 -28 -5 -5 -97 -65 -205 -134 l-197 -126 -76 21 c-42 12 -74 23
-71 26 12 12 401 261 409 261 5 1 40 -8 79 -20z"/>
<path d="M6478 4163 c7 -3 16 -2 19 1 4 3 -2 6 -13 5 -11 0 -14 -3 -6 -6z"/>
<path d="M9247 4017 c-288 -195 -1052 -732 -1092 -768 -20 -17 -20 -23 -8
-331 6 -172 14 -380 17 -463 4 -82 13 -318 21 -524 8 -206 17 -376 19 -378 2
-2 124 81 272 185 307 215 712 495 860 595 l101 69 6 165 c11 277 8 1573 -3
1573 -6 0 -92 -55 -193 -123z m13 -717 c0 -6 -52 -44 -115 -86 -63 -42 -115
-79 -115 -82 0 -4 5 -25 10 -47 8 -37 7 -43 -32 -92 -31 -41 -50 -55 -82 -64
-22 -6 -57 -15 -77 -20 -26 -6 -50 -5 -87 6 l-51 16 -114 -76 c-106 -70 -137
-86 -137 -67 0 4 54 42 121 86 112 73 123 78 157 71 20 -4 49 -9 64 -12 16 -3
56 2 90 12 54 15 68 23 97 62 32 43 33 47 24 94 l-10 48 121 80 c123 82 136
89 136 71z"/>
<path d="M6815 7904 c-44 -45 -125 -190 -125 -224 0 -25 47 -60 81 -60 40 0
82 40 113 109 81 182 40 287 -69 175z"/>
<path d="M6394 7950 c-54 -22 -125 -149 -128 -230 -5 -168 171 -45 216 152 11
48 11 52 -11 69 -25 20 -44 23 -77 9z"/>
<path d="M7370 7912 c-48 -50 -90 -144 -90 -202 0 -32 26 -70 48 -70 53 0 132
99 164 203 l20 68 -23 25 c-35 37 -66 31 -119 -24z"/>
<path d="M8819 7937 c-47 -32 -109 -153 -109 -213 0 -58 14 -84 45 -84 59 0
157 138 171 241 6 41 4 48 -17 63 -31 22 -50 20 -90 -7z"/>
<path d="M5807 7218 c-60 -106 -137 -249 -137 -253 0 -3 27 -5 59 -5 48 0 61
3 65 18 10 31 56 253 56 268 0 27 -19 14 -43 -28z"/>
<path d="M5709 6904 c23 -26 41 -51 41 -55 0 -22 18 -6 23 20 3 16 9 40 13 55
6 26 6 26 -56 26 l-62 0 41 -46z"/>
<path d="M6666 6971 c-18 -20 -47 -93 -41 -100 2 -2 18 7 35 19 29 21 60 67
60 90 0 17 -36 11 -54 -9z"/>
<path d="M7612 6968 c-11 -13 -25 -36 -31 -51 -16 -42 -14 -112 4 -127 40 -33
105 50 105 133 0 67 -37 88 -78 45z"/>
<path d="M8808 10489 l-78 -31 0 -57 c0 -52 -11 -81 -32 -81 -4 0 -4 22 -1 49
9 78 4 83 -62 58 l-56 -20 8 -106 c4 -58 8 -154 8 -214 l0 -107 70 0 c39 0 86
4 105 10 23 7 36 6 40 0 4 -6 14 -8 24 -4 12 5 16 13 11 28 -3 11 -13 61 -21
109 -11 68 -12 92 -3 103 21 26 26 14 32 -73 7 -126 19 -146 58 -100 l19 22
-10 -27 c-10 -31 -3 -35 24 -15 17 13 18 19 4 113 -13 92 -15 99 -36 98 -28
-1 -29 13 -1 21 16 6 20 13 16 34 -3 14 -11 70 -18 124 -7 53 -15 97 -18 96
-3 0 -41 -14 -83 -30z m17 -104 c0 -11 -7 -21 -16 -23 -18 -3 -33 23 -23 39
10 17 39 5 39 -16z"/>
<path d="M8610 10480 c-11 -11 -20 -29 -20 -39 0 -19 2 -19 45 -4 52 17 62 28
45 48 -17 21 -46 19 -70 -5z"/>
<path d="M9106 10318 c-17 -23 -23 -128 -8 -128 5 0 18 18 31 40 36 65 16 144
-23 88z"/>
<path d="M6648 10103 c7 -3 16 -2 19 1 4 3 -2 6 -13 5 -11 0 -14 -3 -6 -6z"/>
<path d="M6619 10063 c-15 -38 -23 -170 -15 -227 4 -26 18 -58 30 -73 l23 -27
13 54 c7 30 14 110 17 178 l6 122 -32 0 c-25 0 -34 -6 -42 -27z"/>
<path d="M8420 9928 c-43 -12 -64 -36 -49 -55 14 -16 72 -17 102 -2 28 15 67
50 67 61 0 11 -76 9 -120 -4z"/>
<path d="M8537 9905 l-28 -34 87 29 c48 17 89 32 92 35 3 3 -24 5 -59 4 -60 0
-66 -2 -92 -34z"/>
<path d="M7286 9839 c-29 -35 -59 -125 -54 -166 2 -22 9 -29 31 -31 17 -2 37
4 47 13 40 36 66 175 38 203 -19 19 -34 14 -62 -19z"/>
<path d="M5346 9786 c-68 -104 -53 -370 25 -448 16 -17 35 -28 42 -26 25 9 56
71 68 139 26 144 -27 350 -92 357 -19 2 -31 -4 -43 -22z"/>
</g>
</svg>
